<svg width="302" height="81" viewBox="0 0 302 81" fill="none" xmlns="http://www.w3.org/2000/svg">
<path fill-rule="evenodd" clip-rule="evenodd" d="M250.832 53.1805V58.1086H237.39V66.787C242.555 64.1371 251.545 61.9897 251.545 72.097C251.545 74.8618 250.563 79.4013 241.064 79.4013H232.91V53.1805H250.832ZM237.39 75.4961V70.6923C243.211 67.6956 247.518 67.4147 247.518 71.816C247.518 76.2174 242.14 75.4961 237.39 75.4961Z" fill="#102D69"/>
<path fill-rule="evenodd" clip-rule="evenodd" d="M266.227 79.5738C276.06 79.7759 277.278 73.6655 277.278 66.3772C277.278 59.0889 275.686 53.1805 266.227 53.1805C256.769 53.1805 255.177 59.0889 255.177 66.3772C255.177 73.6655 256.395 79.3717 266.227 79.5738ZM266.227 75.4649C272.06 75.6025 272.782 71.4407 272.782 66.4766C272.782 61.5125 271.838 57.4883 266.227 57.4883C260.616 57.4883 259.672 61.5125 259.672 66.4766C259.672 71.4407 260.394 75.3273 266.227 75.4649Z" fill="#102D69"/>
<path d="M297.121 60.8769C297.121 60.8769 297.121 57.734 292.324 57.734C286.716 57.734 285.592 61.9833 285.592 66.5719C285.592 69.4749 285.779 74.9064 292.738 74.9064C297.121 74.9064 297.121 71.7103 297.121 71.7103C297.121 71.7103 300.575 71.7103 302 71.7103C302 75.2664 298.195 79.4014 292.738 79.4014C283.251 79.4014 280.91 72.7525 280.91 66.5719C280.91 60.3913 282.314 53.1855 292.738 53.1855C297.95 53.1856 302 56.7419 302 60.8769H297.121Z" fill="#102D69"/>
<path d="M294.491 64.411C294.491 64.411 294.491 63.2659 292.744 63.2659C290.702 63.2659 290.293 64.8141 290.293 66.486C290.293 67.5437 290.361 69.5227 292.895 69.5227C294.491 69.5227 294.491 68.3582 294.491 68.3582C294.491 68.3582 295.749 68.3582 296.267 68.3582C296.267 69.6539 294.882 71.1605 292.895 71.1605C289.441 71.1605 288.588 68.738 288.588 66.486C288.588 64.2341 289.1 61.6086 292.895 61.6086C294.793 61.6086 296.267 62.9044 296.267 64.411H294.491Z" fill="#102D69"/>
<path d="M198 47V52.9933H211.11V79.4014H215.98V52.9933H229.184V47H198Z" fill="#102D69"/>
<path fill-rule="evenodd" clip-rule="evenodd" d="M226.576 63.3881V71.6492C223.461 70.0402 218.04 68.7365 218.04 74.873C218.04 76.5517 218.632 79.3078 224.36 79.3078H229.277V63.3881H226.576ZM226.576 76.9368V74.0202C223.066 72.2008 220.468 72.0302 220.468 74.7025C220.468 77.3747 223.712 76.9368 226.576 76.9368Z" fill="#102D69"/>
<circle cx="168" cy="58" r="5" fill="#102D69"/>
<path d="M31.5113 35.7306C35.4201 34.1418 37.7961 31.6935 39.3509 29.8356C42.3251 26.4366 43.5436 22.2649 43.5436 18.3233C43.5436 15.137 42.6614 8.77747 37.0361 4.39742C33.1796 1.42818 29.7555 0.00434191 21.5884 0.00434191H17.4568C17.3301 9.27431e-07 17.2034 0 17.0506 0H0V80H48.6667V64.6459C48.6667 49.9517 43.8887 40.076 31.5113 35.7306ZM37.6388 75.5939H28.8646V48.8925H18.7277V75.6243H10.9754V3.98937H18.9417C21.9247 3.98937 26.4494 4.65354 29.6507 8.60383C31.3191 10.6007 32.3411 13.2574 32.6992 15.9314H18.7321V19.873H32.8259C32.7123 22.4168 32.1926 25.2645 29.6813 28.2902C27.4757 31.0337 23.8464 33.5819 18.7277 33.5819H18.6447V37.5712C32.3236 37.5712 37.6476 46.6092 37.6476 63.1526V75.5939H37.6388Z" fill="#102D69"/>
<path d="M56.824 80V76.976H59.848V61.328H56.824V58.304H63.352V76.976H66.376V80H56.824ZM61.624 52.016C60.376 52.016 59.272 50.96 59.272 49.712C59.272 48.464 60.376 47.408 61.624 47.408C62.824 47.408 63.928 48.464 63.928 49.712C63.928 50.96 62.824 52.016 61.624 52.016ZM80.1306 80.72C75.7146 80.72 72.4026 79.376 72.4026 75.632C72.4026 74.432 73.3626 73.424 74.7546 73.424C76.2426 73.424 77.2026 74.432 77.2026 75.632C77.2026 75.968 77.0586 76.496 76.8666 76.784C77.6346 77.312 78.8826 77.6 80.1306 77.6C83.1066 77.6 85.2186 75.872 85.2186 73.76C85.2186 68.816 72.8346 72.416 72.8346 63.776C72.8346 59.984 76.2426 57.68 80.7546 57.68C85.0746 57.68 88.2906 59.024 88.2906 62.768C88.2906 64.016 87.3306 64.976 85.9866 64.976C84.5466 64.976 83.5866 64.016 83.5866 62.768C83.5866 62.432 83.7306 62 83.9226 61.712C83.1546 61.184 81.9066 60.896 80.6586 60.896C78.4506 60.896 76.1466 61.76 76.1466 63.824C76.1466 69.056 88.5786 65.12 88.5786 73.808C88.5786 78.08 85.2186 80.72 80.1306 80.72ZM94.8149 80V76.976H97.8389V47.024H94.8149V44H101.343V61.424C103.359 59.456 106.383 57.68 109.551 57.68C114.207 57.68 117.135 60.032 117.135 66.464V76.976H120.159V80H110.607V76.976H113.631V67.28C113.631 62.096 111.327 61.184 108.879 61.184C105.951 61.184 103.071 63.536 101.343 65.648V76.976H104.367V80H94.8149ZM128.053 71.6L127.333 46.4H131.797L131.125 71.6H128.053ZM126.805 77.6C126.805 76.16 128.005 74.912 129.493 74.912C130.933 74.912 132.181 76.16 132.181 77.6C132.181 79.088 130.933 80.24 129.493 80.24C128.005 80.24 126.805 79.088 126.805 77.6Z" fill="#102D69"/>
</svg>
